<svg xmlns="http://www.w3.org/2000/svg" width="1202.667" height="1202.667" preserveAspectRatio="xMidYMid meet" version="1.0" viewBox="0 0 902 902"><metadata>Created by potrace 1.11, written by Peter Selinger 2001-2013</metadata><g fill="#000" stroke="none"><path d="M655 8995 c-327 -72 -550 -296 -631 -633 -11 -48 -13 -697 -11 -3867 1 -2096 6 -3823 10 -3840 17 -68 50 -161 69 -199 89 -175 267 -335 440 -396 150 -53 -125 -49 3973 -49 3308 0 3799 2 3860 14 277 59 496 247 596 512 11 28 22 62 25 75 2 13 8 39 12 58 4 19 7 1752 7 3850 0 3531 -1 3819 -17 3875 -76 273 -252 472 -500 564 -142 53 111 50 -3983 50 -3101 -1 -3801 -3 -3850 -14z" transform="translate(0.000000,902.000000) scale(0.100000,-0.100000)"/></g></svg>